<?xml version="1.0" encoding="UTF-8" standalone="no"?>
<!-- Created with Inkscape (http://www.inkscape.org/) -->

<svg
   width="39.6875mm"
   height="43.655499mm"
   viewBox="0 0 39.6875 43.655499"
   version="1.1"
   id="svg1"
   inkscape:version="1.3.2 (091e20e, 2023-11-25, custom)"
   sodipodi:docname="central-large-icon.svg"
   xmlns:inkscape="http://www.inkscape.org/namespaces/inkscape"
   xmlns:sodipodi="http://sodipodi.sourceforge.net/DTD/sodipodi-0.dtd"
   xmlns="http://www.w3.org/2000/svg"
   xmlns:svg="http://www.w3.org/2000/svg">
  <sodipodi:namedview
     id="namedview1"
     pagecolor="#ffffff"
     bordercolor="#666666"
     borderopacity="1.0"
     inkscape:showpageshadow="2"
     inkscape:pageopacity="0.0"
     inkscape:pagecheckerboard="0"
     inkscape:deskcolor="#d1d1d1"
     inkscape:document-units="mm"
     inkscape:zoom="0.45344416"
     inkscape:cx="-43.004192"
     inkscape:cy="153.27135"
     inkscape:window-width="1366"
     inkscape:window-height="705"
     inkscape:window-x="-8"
     inkscape:window-y="-8"
     inkscape:window-maximized="1"
     inkscape:current-layer="layer1" />
  <defs
     id="defs1" />
  <g
     inkscape:label="Layer 1"
     inkscape:groupmode="layer"
     id="layer1"
     transform="translate(-116.15208,-107.6854)">
    <path
       d="m 154.84717,139.43445 h -7.93731 c -0.26321,0 -0.51558,0.1042 -0.70151,0.29091 -0.18611,0.18612 -0.29092,0.43848 -0.29092,0.70151 v 2.97647 h -4.14723 c -0.20478,-0.57881 -0.58363,-1.08053 -1.08439,-1.43571 -0.50112,-0.35536 -1.09945,-0.54689 -1.7135,-0.5487 h -1.9843 v -2.97648 c 6.42919,-0.18851 12.89808,-2.25226 12.89808,-5.95301 v -18.85103 c 0,-3.86945 -7.15347,-5.95301 -13.89026,-5.95301 -6.73679,0 -13.89026,2.08356 -13.89026,5.95301 v 18.85103 c 0,3.68094 6.46889,5.74462 12.89808,5.95301 v 2.97648 h -1.98429 c -0.61406,0.002 -1.21263,0.19334 -1.71351,0.5487 -0.50111,0.35536 -0.87978,0.85672 -1.08439,1.43571 h -4.14723 v -2.97647 c 0,-0.26321 -0.1042,-0.51558 -0.29092,-0.70151 -0.18611,-0.18611 -0.43848,-0.29091 -0.70151,-0.29091 h -7.93724 c -0.2632,0 -0.51557,0.1042 -0.70157,0.29091 -0.18611,0.18612 -0.29091,0.43848 -0.29091,0.70151 v 6.94513 c 0,0.26321 0.1042,0.51558 0.29091,0.70151 0.18611,0.18611 0.43848,0.29091 0.70157,0.29091 h 2.97641 v 0.99212 h -1.98429 v 1.98436 h 5.95295 v -1.98436 h -1.9843 v -0.99212 h 2.97647 c 0.26321,0 0.51558,-0.1042 0.70151,-0.29091 0.18611,-0.18611 0.29092,-0.43848 0.29092,-0.70151 v -1.98436 h 4.14723 c 0.20479,0.57882 0.58364,1.0806 1.08439,1.43572 0.50112,0.35536 1.09945,0.5469 1.71351,0.5487 h 5.95295 c 0.61405,-0.002 1.21262,-0.19334 1.7135,-0.5487 0.50112,-0.35536 0.87979,-0.85666 1.08439,-1.43572 h 4.14723 v 1.98436 c 0,0.26321 0.1042,0.51558 0.29092,0.70151 0.18612,0.18611 0.43848,0.29091 0.70151,0.29091 h 2.97647 v 0.99212 h -1.98435 v 1.98436 h 5.95301 v -1.98436 h -1.98436 v -0.99212 h 2.97654 c 0.26321,0 0.51557,-0.1042 0.7015,-0.29091 0.18612,-0.18611 0.29091,-0.43848 0.29091,-0.70151 v -6.94513 c 0,-0.26321 -0.1042,-0.51558 -0.29091,-0.70151 -0.18611,-0.18611 -0.43848,-0.29091 -0.7015,-0.29091 z m -18.8511,-29.76488 c 7.37175,0 11.90591,2.31178 11.90591,3.96866 0,1.65695 -4.53416,3.96866 -11.90591,3.96866 -7.37174,0 -11.90596,-2.31171 -11.90596,-3.96866 0,-1.65688 4.53422,-3.96866 11.90596,-3.96866 z m -11.90596,7.1436 c 2.58955,1.78589 7.34199,2.77807 11.90596,2.77807 4.56398,0 9.31641,-0.99218 11.90591,-2.77807 v 3.77019 c 0,1.65694 -4.53416,3.96865 -11.90591,3.96865 -7.37174,0 -11.90596,-2.31171 -11.90596,-3.96865 z m 0,6.94512 c 2.58955,1.7859 7.34199,2.77808 11.90596,2.77808 4.56398,0 9.31641,-0.99218 11.90591,-2.77808 v 2.77808 c 0,1.65688 -4.53416,3.96859 -11.90591,3.96859 -7.37174,0 -11.90596,-2.31171 -11.90596,-3.96859 z m 0,8.73104 v -2.77808 c 2.58955,1.7859 7.34199,2.77808 11.90596,2.77808 4.56398,0 9.31641,-0.99218 11.90591,-2.77808 v 2.77808 c 0,1.65688 -4.53416,3.96864 -11.90591,3.96864 -7.37174,0 -11.90596,-2.31176 -11.90596,-3.96864 z m 0,13.89025 h -5.95295 v -4.96077 h 5.95295 z m 14.88244,-0.99218 h -5.95296 c -0.35414,0 -0.68199,-0.18912 -0.85931,-0.4963 -0.17707,-0.30717 -0.17707,-0.68524 0,-0.99217 0.17709,-0.30719 0.50474,-0.49631 0.85931,-0.49631 h 5.95296 c 0.35415,0 0.68199,0.18912 0.8593,0.49631 0.17709,0.30717 0.17709,0.68523 0,0.99217 -0.17768,0.30718 -0.50472,0.4963 -0.8593,0.4963 z m 14.88244,0.99218 h -5.95301 v -4.96077 h 5.95301 z"
       id="path106993"
       style="fill:#275b85;fill-opacity:1;stroke-width:0.0396865" />
  </g>
</svg>
