<?xml version="1.0" encoding="UTF-8" standalone="no"?>
<!-- Created with Inkscape (http://www.inkscape.org/) -->

<svg
   width="14.60393mm"
   height="14.60393mm"
   viewBox="0 0 14.60393 14.60393"
   version="1.1"
   id="svg1"
   inkscape:version="1.3.2 (091e20e, 2023-11-25, custom)"
   sodipodi:docname="central-icon.svg"
   xmlns:inkscape="http://www.inkscape.org/namespaces/inkscape"
   xmlns:sodipodi="http://sodipodi.sourceforge.net/DTD/sodipodi-0.dtd"
   xmlns="http://www.w3.org/2000/svg"
   xmlns:svg="http://www.w3.org/2000/svg">
  <sodipodi:namedview
     id="namedview1"
     pagecolor="#ffffff"
     bordercolor="#666666"
     borderopacity="1.0"
     inkscape:showpageshadow="2"
     inkscape:pageopacity="0.0"
     inkscape:pagecheckerboard="0"
     inkscape:deskcolor="#d1d1d1"
     inkscape:document-units="mm"
     inkscape:zoom="0.45344416"
     inkscape:cx="-58.441595"
     inkscape:cy="203.99425"
     inkscape:window-width="1366"
     inkscape:window-height="705"
     inkscape:window-x="-8"
     inkscape:window-y="-8"
     inkscape:window-maximized="1"
     inkscape:current-layer="layer1" />
  <defs
     id="defs1" />
  <g
     inkscape:label="Layer 1"
     inkscape:groupmode="layer"
     id="layer1"
     transform="translate(-120.38543,-94.720831)">
    <circle
       style="fill:#f9b141;fill-opacity:1;stroke:none;stroke-width:0.300201;stroke-linecap:round;stroke-dasharray:0.300201, 0.300201;stroke-dashoffset:0;stroke-opacity:1"
       id="circle96023"
       cx="127.68739"
       cy="102.0228"
       r="7.3019652" />
    <path
       d="m 130.81722,103.67002 h -1.31782 c -0.0437,0 -0.0856,0.0173 -0.11647,0.0483 -0.0309,0.0309 -0.0483,0.0728 -0.0483,0.11647 v 0.49418 h -0.68856 c -0.034,-0.0961 -0.0969,-0.1794 -0.18004,-0.23837 -0.0832,-0.059 -0.18254,-0.0908 -0.28449,-0.0911 h -0.32945 v -0.49418 c 1.06743,-0.0313 2.14145,-0.37394 2.14145,-0.98837 v -3.12981 c 0,-0.64244 -1.18768,-0.98837 -2.30618,-0.98837 -1.1185,0 -2.30618,0.34593 -2.30618,0.98837 v 3.12981 c 0,0.61114 1.07402,0.95377 2.14145,0.98837 v 0.49418 h -0.32945 c -0.10195,2.7e-4 -0.20133,0.0321 -0.28449,0.0911 -0.0832,0.059 -0.14607,0.14224 -0.18004,0.23837 h -0.68856 v -0.49418 c 0,-0.0437 -0.0173,-0.0856 -0.0483,-0.11647 -0.0309,-0.0309 -0.0728,-0.0483 -0.11647,-0.0483 h -1.31782 c -0.0437,0 -0.0856,0.0173 -0.11647,0.0483 -0.0309,0.0309 -0.0483,0.0728 -0.0483,0.11647 v 1.15309 c 0,0.0437 0.0173,0.0856 0.0483,0.11647 0.0309,0.0309 0.0728,0.0483 0.11647,0.0483 h 0.49418 v 0.16472 h -0.32945 v 0.32946 h 0.98836 v -0.32946 h -0.32945 v -0.16472 h 0.49418 c 0.0437,0 0.0856,-0.0173 0.11647,-0.0483 0.0309,-0.0309 0.0483,-0.0728 0.0483,-0.11647 v -0.32946 h 0.68856 c 0.034,0.0961 0.0969,0.17941 0.18004,0.23837 0.0832,0.059 0.18254,0.0908 0.28449,0.0911 h 0.98836 c 0.10195,-2.8e-4 0.20133,-0.0321 0.28449,-0.0911 0.0832,-0.059 0.14607,-0.14223 0.18004,-0.23837 h 0.68856 v 0.32946 c 0,0.0437 0.0173,0.0856 0.0483,0.11647 0.0309,0.0309 0.0728,0.0483 0.11647,0.0483 h 0.49418 v 0.16472 h -0.32946 v 0.32946 h 0.98837 v -0.32946 h -0.32946 v -0.16472 h 0.49419 c 0.0437,0 0.0856,-0.0173 0.11647,-0.0483 0.0309,-0.0309 0.0483,-0.0728 0.0483,-0.11647 v -1.15309 c 0,-0.0437 -0.0173,-0.0856 -0.0483,-0.11647 -0.0309,-0.0309 -0.0728,-0.0483 -0.11647,-0.0483 z M 127.6874,98.7282 c 1.22392,0 1.97672,0.38382 1.97672,0.65891 0,0.2751 -0.7528,0.65891 -1.97672,0.65891 -1.22392,0 -1.97673,-0.38381 -1.97673,-0.65891 0,-0.27509 0.75281,-0.65891 1.97673,-0.65891 z m -1.97673,1.18604 c 0.42994,0.29651 1.21898,0.46124 1.97673,0.46124 0.75775,0 1.54679,-0.16473 1.97672,-0.46124 v 0.62596 c 0,0.2751 -0.7528,0.65891 -1.97672,0.65891 -1.22392,0 -1.97673,-0.38381 -1.97673,-0.65891 z m 0,1.15309 c 0.42994,0.29651 1.21898,0.46124 1.97673,0.46124 0.75775,0 1.54679,-0.16473 1.97672,-0.46124 v 0.46124 c 0,0.27509 -0.7528,0.6589 -1.97672,0.6589 -1.22392,0 -1.97673,-0.38381 -1.97673,-0.6589 z m 0,1.4496 v -0.46124 c 0.42994,0.29651 1.21898,0.46124 1.97673,0.46124 0.75775,0 1.54679,-0.16473 1.97672,-0.46124 v 0.46124 c 0,0.27509 -0.7528,0.65891 -1.97672,0.65891 -1.22392,0 -1.97673,-0.38382 -1.97673,-0.65891 z m 0,2.30618 h -0.98836 v -0.82363 h 0.98836 z m 2.47091,-0.16473 h -0.98836 c -0.0588,0 -0.11323,-0.0314 -0.14267,-0.0824 -0.0294,-0.051 -0.0294,-0.11377 0,-0.16473 0.0294,-0.051 0.0838,-0.0824 0.14267,-0.0824 h 0.98836 c 0.0588,0 0.11323,0.0314 0.14267,0.0824 0.0294,0.051 0.0294,0.11377 0,0.16473 -0.0295,0.051 -0.0838,0.0824 -0.14267,0.0824 z m 2.47091,0.16473 h -0.98837 v -0.82363 h 0.98837 z"
       id="path106993"
       style="fill:#ffffff;fill-opacity:1;stroke-width:0.00658909" />
  </g>
</svg>
