<?xml version="1.0" encoding="UTF-8" standalone="no"?>
<!-- Created with Inkscape (http://www.inkscape.org/) -->

<svg
   width="7.02912mm"
   height="6.9864998mm"
   viewBox="0 0 7.02912 6.9864998"
   version="1.1"
   id="svg1"
   inkscape:version="1.3.2 (091e20e, 2023-11-25, custom)"
   sodipodi:docname="facebook.svg"
   xmlns:inkscape="http://www.inkscape.org/namespaces/inkscape"
   xmlns:sodipodi="http://sodipodi.sourceforge.net/DTD/sodipodi-0.dtd"
   xmlns="http://www.w3.org/2000/svg"
   xmlns:svg="http://www.w3.org/2000/svg">
  <sodipodi:namedview
     id="namedview1"
     pagecolor="#ffffff"
     bordercolor="#666666"
     borderopacity="1.0"
     inkscape:showpageshadow="2"
     inkscape:pageopacity="0.0"
     inkscape:pagecheckerboard="0"
     inkscape:deskcolor="#d1d1d1"
     inkscape:document-units="mm"
     inkscape:zoom="0.45344416"
     inkscape:cx="-230.45836"
     inkscape:cy="168.70875"
     inkscape:window-width="1366"
     inkscape:window-height="705"
     inkscape:window-x="-8"
     inkscape:window-y="-8"
     inkscape:window-maximized="1"
     inkscape:current-layer="layer1" />
  <defs
     id="defs1" />
  <g
     inkscape:label="Layer 1"
     inkscape:groupmode="layer"
     id="layer1"
     transform="translate(-165.62916,-103.9812)">
    <path
       id="path3419"
       d="m 172.65828,107.4957 c 0,-1.9414 -1.57305,-3.5145 -3.51457,-3.5145 -1.94149,0 -3.51455,1.5731 -3.51455,3.5145 0,1.7542 1.28524,3.208 2.9654,3.472 v -2.4559 h -0.89281 v -1.0161 h 0.89281 v -0.7743 c 0,-0.8807 0.52435,-1.3673 1.32744,-1.3673 0.38464,0 0.78682,0.068 0.78682,0.068 v 0.8643 h -0.44329 c -0.43649,0 -0.57269,0.2711 -0.57269,0.5487 v 0.6598 h 0.97473 l -0.1559,1.0161 h -0.81884 v 2.456 c 1.68019,-0.264 2.96543,-1.718 2.96543,-3.4721 z"
       inkscape:connector-curvature="0"
       style="fill:#ffffff;fill-opacity:1;stroke-width:0.0141716" />
  </g>
</svg>
