<?xml version="1.0" encoding="UTF-8" standalone="no"?>
<!-- Created with Inkscape (http://www.inkscape.org/) -->

<svg
   width="7.028862mm"
   height="6.9865031mm"
   viewBox="0 0 7.028862 6.9865031"
   version="1.1"
   id="svg1"
   inkscape:version="1.3.2 (091e20e, 2023-11-25, custom)"
   sodipodi:docname="instagram.svg"
   xmlns:inkscape="http://www.inkscape.org/namespaces/inkscape"
   xmlns:sodipodi="http://sodipodi.sourceforge.net/DTD/sodipodi-0.dtd"
   xmlns="http://www.w3.org/2000/svg"
   xmlns:svg="http://www.w3.org/2000/svg">
  <sodipodi:namedview
     id="namedview1"
     pagecolor="#ffffff"
     bordercolor="#666666"
     borderopacity="1.0"
     inkscape:showpageshadow="2"
     inkscape:pageopacity="0.0"
     inkscape:pagecheckerboard="0"
     inkscape:deskcolor="#d1d1d1"
     inkscape:document-units="mm"
     inkscape:zoom="0.45344416"
     inkscape:cx="20.95076"
     inkscape:cy="-95.932429"
     inkscape:window-width="1366"
     inkscape:window-height="705"
     inkscape:window-x="-8"
     inkscape:window-y="-8"
     inkscape:window-maximized="1"
     inkscape:current-layer="layer1" />
  <defs
     id="defs1" />
  <g
     inkscape:label="Layer 1"
     inkscape:groupmode="layer"
     id="layer1"
     transform="translate(-99.218749,-193.675)">
    <path
       id="path4382-4"
       style="fill:#ffffff;fill-opacity:1;stroke:#5e7897;stroke-width:0.0422032;stroke-linecap:round;stroke-miterlimit:4;stroke-dasharray:none;stroke-dashoffset:0;stroke-opacity:1"
       d="m 102.73318,193.6961 a 3.4933925,3.4722166 0 0 0 -3.493329,3.4721 3.4933925,3.4722166 0 0 0 3.493329,3.4722 3.4933925,3.4722166 0 0 0 3.49333,-3.4722 3.4933925,3.4722166 0 0 0 -3.49333,-3.4721 z m 0,1.4552 c 0.33272,0 0.66551,0 0.83199,0.015 0.32305,0.016 0.60914,0.09 0.84491,0.3256 0.23666,0.2359 0.31078,0.5217 0.32608,0.8449 0.0189,0.3328 0.0189,1.3299 0,1.6629 -0.0162,0.323 -0.0903,0.609 -0.32608,0.8449 -0.23577,0.2356 -0.52186,0.3106 -0.84491,0.3256 -0.33295,0.02 -1.33103,0.02 -1.66398,0 -0.32306,-0.016 -0.60824,-0.09 -0.84491,-0.3256 -0.23666,-0.2359 -0.31026,-0.5219 -0.32556,-0.8449 -0.0189,-0.333 -0.0189,-1.3312 0,-1.664 0.0162,-0.3231 0.0889,-0.6092 0.32556,-0.8449 0.23667,-0.2348 0.52276,-0.3095 0.84491,-0.3245 0.16647,-0.01 0.49926,-0.015 0.83199,-0.015 z m -0.4346,0.3607 c -0.27949,0 -0.58753,0.018 -0.75344,0.084 -0.17728,0.071 -0.31324,0.2071 -0.38344,0.3835 -0.1045,0.2646 -0.0811,0.8951 -0.0811,1.1885 0,0.2935 -0.0242,0.9231 0.0811,1.1886 0.0711,0.1772 0.20707,0.3134 0.38344,0.3834 0.26455,0.105 0.8952,0.082 1.18855,0.082 0.29337,0 0.92311,0.024 1.18856,-0.082 0.17728,-0.071 0.31324,-0.207 0.38344,-0.3834 0.1053,-0.2646 0.0811,-0.8951 0.0811,-1.1886 0,-0.2934 0.0242,-0.9231 -0.0811,-1.1885 -0.0711,-0.1773 -0.20707,-0.3135 -0.38344,-0.3835 -0.26457,-0.105 -0.89519,-0.082 -1.18856,-0.082 -0.11,0 -0.26741,0 -0.43511,0 z m 1.51153,0.339 c 0.13314,0 0.24082,0.1078 0.24082,0.2408 0,0.1342 -0.10772,0.2414 -0.24082,0.2414 -0.13407,0 -0.24132,-0.1084 -0.24132,-0.2414 0,-0.1328 0.10825,-0.2408 0.24132,-0.2408 z m -1.07642,0.2832 c 0.57233,0 1.03405,0.4617 1.03405,1.034 0,0.5721 -0.46172,1.0336 -1.03405,1.0336 -0.57231,0 -1.03404,-0.4614 -1.03404,-1.0336 0,-0.5723 0.46173,-1.034 1.03404,-1.034 z m 0,0.3617 c -0.37075,0 -0.6723,0.3016 -0.6723,0.6723 0,0.3708 0.30245,0.6724 0.6723,0.6724 0.36985,0 0.67231,-0.3016 0.67231,-0.6724 0,-0.3707 -0.30156,-0.6723 -0.67231,-0.6723 z" />
  </g>
</svg>
