<?xml version="1.0" encoding="UTF-8" standalone="no"?>
<!-- Created with Inkscape (http://www.inkscape.org/) -->

<svg
   xmlns:dc="http://purl.org/dc/elements/1.1/"
   xmlns:cc="http://creativecommons.org/ns#"
   xmlns:rdf="http://www.w3.org/1999/02/22-rdf-syntax-ns#"
   xmlns:svg="http://www.w3.org/2000/svg"
   xmlns="http://www.w3.org/2000/svg"
   xmlns:sodipodi="http://sodipodi.sourceforge.net/DTD/sodipodi-0.dtd"
   xmlns:inkscape="http://www.inkscape.org/namespaces/inkscape"
   width="37.103992mm"
   height="9.1106205mm"
   viewBox="0 0 37.103992 9.1106205"
   version="1.1"
   id="svg6387"
   inkscape:version="0.92.4 (5da689c313, 2019-01-14)"
   sodipodi:docname="Legal-Practice-Management-Software-30.svg">
  <defs
     id="defs6381" />
  <sodipodi:namedview
     id="base"
     pagecolor="#ffffff"
     bordercolor="#666666"
     borderopacity="1.0"
     inkscape:pageopacity="0.0"
     inkscape:pageshadow="2"
     inkscape:zoom="0.35"
     inkscape:cx="-322.73936"
     inkscape:cy="8.6454958"
     inkscape:document-units="mm"
     inkscape:current-layer="layer1"
     showgrid="false"
     fit-margin-top="0"
     fit-margin-left="0"
     fit-margin-right="0"
     fit-margin-bottom="0"
     inkscape:window-width="1366"
     inkscape:window-height="705"
     inkscape:window-x="-8"
     inkscape:window-y="-8"
     inkscape:window-maximized="1" />
  <metadata
     id="metadata6384">
    <rdf:RDF>
      <cc:Work
         rdf:about="">
        <dc:format>image/svg+xml</dc:format>
        <dc:type
           rdf:resource="http://purl.org/dc/dcmitype/StillImage" />
        <dc:title></dc:title>
      </cc:Work>
    </rdf:RDF>
  </metadata>
  <g
     inkscape:label="Layer 1"
     inkscape:groupmode="layer"
     id="layer1"
     transform="translate(-58.555146,-142.01017)">
    <g
       id="g3322"
       transform="matrix(0.12377366,0,0,0.12377366,44.751675,-106.66254)">
      <path
         id="path3292"
         d="m 190.28834,2035.1802 h 30.34771 v 5.6621 h -11.93271 v 31.8294 h -6.56167 v -31.8294 h -11.87979 v -5.6621 z m 29.05125,10.3452 h 5.60916 v 5.2388 h 0.10584 c 0.18521,-0.7409 0.52916,-1.4552 1.03187,-2.1432 0.50271,-0.6879 1.11125,-1.3493 1.82563,-1.905 0.71437,-0.582 1.50812,-1.0318 2.38125,-1.4022 0.87312,-0.344 1.77271,-0.5292 2.67229,-0.5292 0.68792,0 1.19062,0.026 1.45521,0.053 0.26458,0.026 0.52916,0.079 0.82021,0.1058 v 5.768 c -0.42334,-0.079 -0.84667,-0.1323 -1.29646,-0.1853 -0.44979,-0.053 -0.87313,-0.079 -1.29646,-0.079 -1.00542,0 -1.95792,0.2116 -2.8575,0.6085 -0.89958,0.3969 -1.66688,1.0054 -2.32833,1.7727 -0.66146,0.7938 -1.19063,1.7463 -1.5875,2.9104 -0.39688,1.1642 -0.58209,2.4871 -0.58209,3.9952 v 12.9117 h -5.97958 v -27.1198 z m 43.39166,27.1463 h -5.87375 v -3.7836 h -0.10583 c -0.74083,1.3759 -1.82563,2.4607 -3.28083,3.2809 -1.45521,0.8202 -2.93688,1.2435 -4.445,1.2435 -3.57188,0 -6.16479,-0.8731 -7.75229,-2.6458 -1.5875,-1.7727 -2.38125,-4.445 -2.38125,-8.0169 v -17.2244 h 5.97958 v 16.6423 c 0,2.3813 0.44979,4.0746 1.37583,5.0536 0.89958,0.9789 2.19604,1.4816 3.83646,1.4816 1.27,0 2.30187,-0.1852 3.14854,-0.5821 0.84667,-0.3968 1.53458,-0.8995 2.03729,-1.561 0.52917,-0.635 0.89959,-1.4288 1.13771,-2.3283 0.23813,-0.8996 0.34396,-1.8786 0.34396,-2.9369 v -15.7427 h 5.97958 z m 10.18646,-8.7048 c 0.18521,1.7462 0.84667,2.9633 1.98438,3.6777 1.16416,0.6879 2.54,1.0583 4.15395,1.0583 0.55563,0 1.19063,-0.053 1.905,-0.1323 0.71438,-0.079 1.4023,-0.2646 2.01084,-0.5027 0.635,-0.2381 1.13771,-0.6085 1.56104,-1.0848 0.39687,-0.4762 0.58208,-1.0848 0.55562,-1.8521 -0.0265,-0.7672 -0.3175,-1.4022 -0.84666,-1.8785 -0.52917,-0.5027 -1.19063,-0.8731 -2.01084,-1.1906 -0.8202,-0.2911 -1.74625,-0.5556 -2.80458,-0.7673 -1.05833,-0.2117 -2.11667,-0.4498 -3.20146,-0.6879 -1.11125,-0.2382 -2.19604,-0.5557 -3.22791,-0.8996 -1.03188,-0.344 -1.95792,-0.8202 -2.77813,-1.4288 -0.82021,-0.582 -1.48167,-1.3493 -1.95792,-2.2754 -0.5027,-0.926 -0.74083,-2.0637 -0.74083,-3.4396 0,-1.4816 0.37042,-2.6987 1.08479,-3.7041 0.71438,-1.0054 1.64042,-1.7992 2.72521,-2.4077 1.11125,-0.6086 2.32833,-1.0319 3.67771,-1.2965 1.34937,-0.2381 2.64583,-0.3704 3.86292,-0.3704 1.40229,0 2.75166,0.1587 4.02166,0.4498 1.27,0.291 2.43417,0.7673 3.46604,1.4552 1.03188,0.6614 1.87855,1.5346 2.56646,2.5929 0.68792,1.0583 1.11125,2.3548 1.29646,3.8629 h -6.24417 c -0.29104,-1.4287 -0.92604,-2.4077 -1.95791,-2.8839 -1.03188,-0.5027 -2.2225,-0.7409 -3.54542,-0.7409 -0.42333,0 -0.92604,0.026 -1.50812,0.1059 -0.58209,0.079 -1.11125,0.2116 -1.64042,0.3968 -0.50271,0.1852 -0.92604,0.4763 -1.29646,0.8467 -0.34396,0.3704 -0.52917,0.8467 -0.52917,1.4552 0,0.7408 0.26459,1.3229 0.7673,1.7727 0.5027,0.4498 1.16416,0.8202 1.98437,1.1377 0.82021,0.2911 1.74625,0.5557 2.80458,0.7673 1.05834,0.2117 2.14313,0.4498 3.25438,0.6879 1.08479,0.2382 2.14312,0.5557 3.20146,0.8996 1.05833,0.344 1.98437,0.8202 2.80458,1.4288 0.82021,0.6085 1.48167,1.3493 1.98438,2.2489 0.5027,0.8996 0.76729,2.0373 0.76729,3.3602 0,1.614 -0.37042,2.9634 -1.11125,4.1011 -0.74084,1.1112 -1.69334,2.0373 -2.8575,2.7252 -1.16417,0.6879 -2.48709,1.2171 -3.91584,1.5346 -1.42875,0.3175 -2.8575,0.4762 -4.25979,0.4762 -1.71979,0 -3.30729,-0.1852 -4.7625,-0.5821 -1.45521,-0.3968 -2.72521,-0.9789 -3.78354,-1.7462 -1.05833,-0.7938 -1.905,-1.7727 -2.51354,-2.9369 -0.60854,-1.1642 -0.92604,-2.5664 -0.97896,-4.1804 h 6.0325 z m 19.73792,-18.4415 H 297.18 v -8.1491 h 5.97959 v 8.1491 h 5.3975 v 4.4715 h -5.3975 v 14.4991 c 0,0.635 0.0265,1.1642 0.0794,1.6405 0.0529,0.4498 0.18521,0.8466 0.37042,1.1641 0.18521,0.3175 0.47625,0.5557 0.87312,0.7144 0.39688,0.1588 0.89959,0.2381 1.5875,0.2381 0.42334,0 0.84667,0 1.27,-0.026 0.42334,-0.026 0.84667,-0.079 1.27,-0.1852 v 4.6302 c -0.66146,0.079 -1.32291,0.1323 -1.93146,0.2116 -0.635,0.079 -1.27,0.1059 -1.93145,0.1059 -1.5875,0 -2.8575,-0.1588 -3.81,-0.4498 -0.9525,-0.2911 -1.7198,-0.7409 -2.24896,-1.3229 -0.55563,-0.5821 -0.89959,-1.2965 -1.11125,-2.1696 -0.18521,-0.8731 -0.3175,-1.8786 -0.34396,-2.9898 v -16.0073 h -4.52438 v -4.5244 z m 20.13479,0 h 5.66208 v 3.6777 h 0.10584 c 0.84666,-1.5875 2.01083,-2.6987 3.51895,-3.3866 1.50813,-0.688 3.12209,-1.0319 4.8948,-1.0319 2.14312,0 3.9952,0.3704 5.5827,1.1377 1.5875,0.7408 2.91042,1.7727 3.96875,3.0956 1.05834,1.3229 1.82563,2.8575 2.3548,4.6038 0.52916,1.7462 0.79375,3.6248 0.79375,5.6091 0,1.8257 -0.23813,3.5984 -0.71438,5.2917 -0.47625,1.7198 -1.19062,3.2279 -2.14312,4.5508 -0.9525,1.323 -2.16959,2.3548 -3.65125,3.1486 -1.48167,0.7937 -3.20146,1.1906 -5.2123,1.1906 -0.87312,0 -1.74625,-0.079 -2.61937,-0.2381 -0.87313,-0.1588 -1.71979,-0.4234 -2.51354,-0.7673 -0.79375,-0.344 -1.56104,-0.7938 -2.2225,-1.3494 -0.68792,-0.5556 -1.24354,-1.1906 -1.71979,-1.905 H 318.77 v 13.5467 h -5.97958 z m 20.90208,13.5996 c 0,-1.2171 -0.15875,-2.4077 -0.47625,-3.5719 -0.3175,-1.1641 -0.79375,-2.1696 -1.42875,-3.0691 -0.635,-0.8996 -1.42875,-1.614 -2.35479,-2.1432 -0.9525,-0.5291 -2.03729,-0.8202 -3.25437,-0.8202 -2.51355,0 -4.41855,0.8732 -5.68855,2.6194 -1.27,1.7463 -1.905,4.0746 -1.905,6.985 0,1.3758 0.15875,2.6458 0.50271,3.81 0.34396,1.1642 0.82021,2.1696 1.50813,3.0163 0.66146,0.8466 1.45521,1.5081 2.38125,1.9843 0.92604,0.5027 2.01083,0.7409 3.22791,0.7409 1.37584,0 2.51355,-0.2911 3.46605,-0.8467 0.9525,-0.5556 1.71979,-1.2965 2.32833,-2.1696 0.60854,-0.8996 1.05833,-1.905 1.32292,-3.0427 0.23812,-1.1377 0.37041,-2.3019 0.37041,-3.4925 z m 10.55688,-23.9448 h 5.97958 v 5.6621 h -5.97958 z m 0,10.3452 h 5.97958 v 27.1463 h -5.97958 z m 11.32416,-10.3452 h 5.97959 v 37.4915 h -5.97959 z m 24.31521,38.2323 c -2.16958,0 -4.10104,-0.3704 -5.79437,-1.0848 -1.69334,-0.7144 -3.12209,-1.7198 -4.31271,-2.9633 -1.16417,-1.27 -2.06375,-2.7781 -2.67229,-4.5244 -0.60854,-1.7462 -0.92604,-3.6777 -0.92604,-5.7679 0,-2.0638 0.3175,-3.9688 0.92604,-5.715 0.60854,-1.7463 1.50812,-3.2544 2.67229,-4.5244 1.16417,-1.27 2.61937,-2.2489 4.31271,-2.9633 1.69333,-0.7144 3.62479,-1.0848 5.79437,-1.0848 2.16958,0 4.10104,0.3704 5.79438,1.0848 1.69333,0.7144 3.12208,1.7198 4.3127,2.9633 1.16417,1.27 2.06375,2.7781 2.6723,4.5244 0.60854,1.7462 0.92604,3.6512 0.92604,5.715 0,2.0902 -0.3175,4.0217 -0.92604,5.7679 -0.60855,1.7463 -1.50813,3.2544 -2.6723,4.5244 -1.16416,1.27 -2.61937,2.2489 -4.3127,2.9633 -1.69334,0.7144 -3.6248,1.0848 -5.79438,1.0848 z m 0,-4.736 c 1.32292,0 2.48708,-0.2911 3.46604,-0.8467 0.97896,-0.5556 1.77271,-1.2965 2.40771,-2.196 0.635,-0.8996 1.08479,-1.9315 1.40229,-3.0692 0.29104,-1.1377 0.44979,-2.3019 0.44979,-3.4925 0,-1.1642 -0.15875,-2.3019 -0.44979,-3.4661 -0.29104,-1.1641 -0.76729,-2.1695 -1.40229,-3.0691 -0.635,-0.8996 -1.42875,-1.614 -2.40771,-2.1696 -0.97896,-0.5556 -2.14312,-0.8467 -3.46604,-0.8467 -1.32292,0 -2.48708,0.2911 -3.46604,0.8467 -0.97896,0.5556 -1.77271,1.2965 -2.40771,2.1696 -0.635,0.8996 -1.08479,1.905 -1.40229,3.0691 -0.29104,1.1642 -0.44979,2.3019 -0.44979,3.4661 0,1.1906 0.15875,2.3548 0.44979,3.4925 0.29104,1.1377 0.76729,2.1696 1.40229,3.0692 0.635,0.8995 1.42875,1.6404 2.40771,2.196 0.97896,0.5821 2.14312,0.8467 3.46604,0.8467 z m 15.45167,-23.1511 h 4.52437 v -8.1491 h 5.97959 v 8.1491 h 5.3975 v 4.4715 h -5.3975 v 14.4991 c 0,0.635 0.0265,1.1642 0.0794,1.6405 0.0529,0.4498 0.18521,0.8466 0.37042,1.1641 0.18521,0.3175 0.47625,0.5557 0.87312,0.7144 0.39688,0.1588 0.89959,0.2381 1.5875,0.2381 0.42334,0 0.84667,0 1.27,-0.026 0.42334,-0.026 0.84667,-0.079 1.27,-0.1852 v 4.6302 c -0.66146,0.079 -1.32291,0.1323 -1.93146,0.2116 -0.635,0.079 -1.27,0.1059 -1.93145,0.1059 -1.5875,0 -2.8575,-0.1588 -3.81,-0.4498 -0.9525,-0.2911 -1.7198,-0.7409 -2.24896,-1.3229 -0.55563,-0.5821 -0.89959,-1.2965 -1.11125,-2.1696 -0.18521,-0.8731 -0.3175,-1.8786 -0.34396,-2.9898 v -16.0073 h -4.52438 v -4.5244 z"
         inkscape:connector-curvature="0"
         style="fill:#ffffff;fill-opacity:1;stroke-width:0.26458332" />
      <g
         id="g3316">
        <path
           style="fill:#ffffff;fill-opacity:1;stroke-width:0.26458332"
           inkscape:connector-curvature="0"
           d="M 183.30334,2035.1802 H 155.8925 l -8.46666,-26.0879 -8.49313,26.0879 -27.41083,-0.026 22.19854,16.1395 -8.49312,26.0615 22.19854,-16.1131 22.17208,16.1131 -8.46667,-26.0615 z"
           id="path3294" />
        <path
           style="fill:#153a67;fill-opacity:1;stroke:none;stroke-width:0.26903042"
           inkscape:connector-curvature="0"
           d="m 163.56542,2057.1935 -1.96958,-5.9002 -14.17,9.9484 z"
           id="path3296" />
      </g>
    </g>
  </g>
</svg>
