<?xml version="1.0" encoding="UTF-8" standalone="no"?>
<!-- Created with Inkscape (http://www.inkscape.org/) -->

<svg
   xmlns:dc="http://purl.org/dc/elements/1.1/"
   xmlns:cc="http://creativecommons.org/ns#"
   xmlns:rdf="http://www.w3.org/1999/02/22-rdf-syntax-ns#"
   xmlns:svg="http://www.w3.org/2000/svg"
   xmlns="http://www.w3.org/2000/svg"
   xmlns:sodipodi="http://sodipodi.sourceforge.net/DTD/sodipodi-0.dtd"
   xmlns:inkscape="http://www.inkscape.org/namespaces/inkscape"
   width="37.103996mm"
   height="8.2535601mm"
   viewBox="0 0 37.103996 8.2535601"
   version="1.1"
   id="svg5799"
   inkscape:version="0.92.4 (5da689c313, 2019-01-14)"
   sodipodi:docname="Legal-Practice-Management-Software-29.svg">
  <defs
     id="defs5793" />
  <sodipodi:namedview
     id="base"
     pagecolor="#ffffff"
     bordercolor="#666666"
     borderopacity="1.0"
     inkscape:pageopacity="0.0"
     inkscape:pageshadow="2"
     inkscape:zoom="0.35"
     inkscape:cx="-342.73936"
     inkscape:cy="-55.831277"
     inkscape:document-units="mm"
     inkscape:current-layer="layer1"
     showgrid="false"
     fit-margin-top="0"
     fit-margin-left="0"
     fit-margin-right="0"
     fit-margin-bottom="0"
     inkscape:window-width="1366"
     inkscape:window-height="705"
     inkscape:window-x="-8"
     inkscape:window-y="-8"
     inkscape:window-maximized="1" />
  <metadata
     id="metadata5796">
    <rdf:RDF>
      <cc:Work
         rdf:about="">
        <dc:format>image/svg+xml</dc:format>
        <dc:type
           rdf:resource="http://purl.org/dc/dcmitype/StillImage" />
        <dc:title></dc:title>
      </cc:Work>
    </rdf:RDF>
  </metadata>
  <g
     inkscape:label="Layer 1"
     inkscape:groupmode="layer"
     id="layer1"
     transform="translate(-63.846812,-125.80775)">
    <g
       id="g3276"
       transform="matrix(0.20602413,0,0,0.20602413,15.464636,-292.31232)">
      <path
         id="path3236"
         d="m 234.88386,2044.3216 h 16.51 10.02771 v -9.9483 z"
         class="st0"
         inkscape:connector-curvature="0"
         style="fill:#ffffff;fill-opacity:1;stroke:#153a67;stroke-width:0.26458332;stroke-opacity:1" />
      <path
         id="path3238"
         d="m 261.42157,2034.3733 v 35.1102 l 12.54125,-39.7934 z"
         class="st1"
         inkscape:connector-curvature="0"
         style="fill:#ffffff;fill-opacity:1;stroke:#153a67;stroke-width:0.26458332;stroke-opacity:1" />
      <path
         id="path3240"
         d="m 261.42157,2044.3216 h -10.02771 l 10.02771,25.1619 z"
         class="st2"
         inkscape:connector-curvature="0"
         style="fill:#ffffff;fill-opacity:1;stroke:#153a67;stroke-width:0.26458332;stroke-opacity:1" />
      <path
         id="path3242-8"
         d="m 234.88386,2044.3216 19.07646,6.4558 -2.56646,-6.4558 z"
         class="st3"
         inkscape:connector-curvature="0"
         style="fill:#ffffff;fill-opacity:1;stroke:#153a67;stroke-width:0.26458332;stroke-opacity:1" />
      <g
         style="fill:#ffffff"
         transform="matrix(0.26458333,0,0,0.26458333,219.14115,1970.2118)"
         id="g3246">
        <path
           id="path3244"
           d="m 289.2,340.3 c -0.5,0.5 -1.5,1.2 -2.7,2.1 -1.3,0.8 -3,1.6 -5,2.5 -2.1,0.8 -4.6,1.5 -7.6,2.1 -3,0.6 -6.4,0.9 -10.2,0.9 -7.4,0 -13.8,-1.2 -19.2,-3.6 -5.4,-2.4 -9.9,-5.7 -13.4,-10 -3.5,-4.3 -6.1,-9.3 -7.8,-15.1 -1.6,-5.8 -2.5,-12.2 -2.5,-19.2 0,-7 0.9,-13.4 2.7,-19.3 1.8,-5.9 4.5,-11 8,-15.3 3.6,-4.3 8,-7.7 13.4,-10.1 5.4,-2.4 11.7,-3.6 18.9,-3.6 3.6,0 6.8,0.3 9.7,1 2.9,0.6 5.4,1.4 7.6,2.3 2.2,0.9 3.9,1.8 5.4,2.7 1.4,1 2.5,1.8 3.2,2.4 0.8,0.7 1.5,1.6 2.1,2.6 0.6,1 0.9,2.1 0.9,3.3 0,1.8 -0.7,3.7 -2.1,5.5 -1.4,1.8 -2.9,3.5 -4.5,5.1 -1.1,-1.1 -2.3,-2.2 -3.7,-3.4 -1.4,-1.1 -2.9,-2.2 -4.6,-3 -1.7,-0.9 -3.6,-1.6 -5.8,-2.2 -2.2,-0.6 -4.6,-0.9 -7.2,-0.9 -4.7,0 -8.6,0.9 -11.7,2.8 -3.2,1.9 -5.7,4.3 -7.6,7.4 -1.9,3 -3.3,6.5 -4.1,10.4 -0.8,3.9 -1.2,7.9 -1.2,11.9 0,4.3 0.4,8.4 1.2,12.4 0.8,3.9 2.2,7.4 4.3,10.4 2,3 4.6,5.5 7.9,7.3 3.2,1.8 7.3,2.7 12.2,2.7 2.6,0 4.9,-0.3 7.1,-1 2.2,-0.6 4.1,-1.4 5.7,-2.3 1.6,-0.9 3.1,-1.9 4.3,-2.9 1.2,-1 2.3,-1.9 3.1,-2.6 0.5,0.6 1.2,1.4 1.9,2.3 0.7,0.9 1.4,1.9 2.1,2.9 0.6,1 1.2,2 1.6,3 0.5,1 0.7,1.9 0.7,2.7 0,1.2 -0.2,2.2 -0.7,3 -0.6,0.8 -1.4,1.8 -2.4,2.8 z M 360,329.7 c 0,7.3 1.1,12.6 3.2,15.9 -1.7,0.6 -3.2,1.1 -4.6,1.4 -1.4,0.3 -2.9,0.4 -4.5,0.4 -3.3,0 -5.8,-0.6 -7.5,-1.9 -1.7,-1.3 -2.8,-3.1 -3.2,-5.5 -2,2.1 -4.7,3.9 -8,5.4 -3.3,1.5 -7.4,2.2 -12.2,2.2 -2.5,0 -5,-0.3 -7.5,-1 -2.5,-0.7 -4.7,-1.8 -6.8,-3.4 -2,-1.6 -3.7,-3.7 -5,-6.3 -1.3,-2.6 -1.9,-5.8 -1.9,-9.6 0,-4.7 1.1,-8.5 3.4,-11.4 2.3,-2.9 5.1,-5.3 8.5,-7 3.4,-1.7 7.1,-2.9 11.1,-3.5 4,-0.6 7.6,-1.1 10.9,-1.2 1.1,-0.1 2.2,-0.1 3.2,-0.1 h 3 v -2.5 c 0,-3.5 -0.9,-6.1 -2.8,-7.5 -1.9,-1.5 -5,-2.2 -9.2,-2.2 -4,0 -7.5,0.6 -10.6,1.9 -3.1,1.3 -6.1,2.8 -9.1,4.4 -1.3,-1.6 -2.3,-3.3 -3.1,-5.2 -0.8,-1.9 -1.2,-3.3 -1.2,-4.2 0,-1.3 0.7,-2.5 2.1,-3.7 1.4,-1.2 3.4,-2.3 5.9,-3.2 2.5,-1 5.3,-1.7 8.6,-2.3 3.2,-0.6 6.6,-0.9 10.2,-0.9 5,0 9.2,0.5 12.6,1.5 3.5,1 6.3,2.6 8.4,4.7 2.2,2.1 3.7,4.8 4.6,7.9 0.9,3.2 1.4,6.9 1.4,11.1 z m -17.7,-16 h -1.9 c -0.6,0 -1.3,0 -1.9,0.1 -2.3,0.2 -4.6,0.5 -6.8,0.8 -2.3,0.4 -4.3,1 -6,1.9 -1.8,0.9 -3.2,2.1 -4.3,3.6 -1.1,1.5 -1.7,3.4 -1.7,5.7 0,2.6 0.7,4.8 2.2,6.6 1.5,1.8 4,2.7 7.5,2.7 1.7,0 3.4,-0.2 5,-0.7 1.6,-0.5 2.9,-1.1 4.1,-1.8 1.2,-0.7 2.1,-1.5 2.8,-2.4 0.7,-0.9 1,-1.7 1,-2.4 z m 52.1,-27.2 c 1.5,-1.7 3.8,-3.5 6.9,-5.3 3.1,-1.8 7.1,-2.7 11.8,-2.7 3.4,0 6.6,0.6 9.7,1.7 3.1,1.2 5.8,3 8.2,5.6 2.4,2.6 4.3,6 5.7,10.2 1.4,4.2 2.1,9.4 2.1,15.6 0,7.2 -0.8,13.1 -2.5,17.8 -1.7,4.7 -3.8,8.3 -6.4,11.1 -2.6,2.7 -5.5,4.6 -8.7,5.7 -3.2,1.1 -6.4,1.7 -9.6,1.7 -2.7,0 -5,-0.3 -7,-0.9 -2,-0.6 -3.7,-1.3 -5,-2 -1.4,-0.7 -2.4,-1.5 -3.2,-2.2 -0.7,-0.7 -1.2,-1.2 -1.4,-1.5 v 34 h -18.8 v -94.8 c 0.5,-0.1 1,-0.2 1.7,-0.3 0.6,-0.1 1.2,-0.2 2,-0.2 0.7,0 1.6,-0.1 2.6,-0.1 3.1,0 5.7,0.5 7.8,1.5 2.2,1 3.6,2.7 4.1,5.1 z m 24.9,25.5 c 0,-2.8 -0.2,-5.3 -0.7,-7.7 -0.5,-2.4 -1.2,-4.5 -2.3,-6.2 -1.1,-1.7 -2.5,-3.1 -4.3,-4.1 -1.8,-1 -4,-1.5 -6.5,-1.5 -3.8,0 -6.5,0.7 -8,2.2 -1.5,1.5 -2.3,3.1 -2.3,4.8 v 29.3 c 0.7,0.7 2,1.6 3.9,2.6 1.9,1 4.1,1.5 6.5,1.5 4.7,0 8.1,-1.8 10.3,-5.5 2.3,-3.6 3.4,-8.7 3.4,-15.4 z m 34.1,23.8 c -0.6,-1.8 -1.1,-3.8 -1.2,-5.8 -0.2,-2 -0.3,-4.1 -0.3,-6.1 v -64.1 c 0.6,-0.1 1.3,-0.2 2.1,-0.3 0.6,-0.1 1.3,-0.2 2.1,-0.2 0.7,0 1.5,-0.1 2.2,-0.1 1.5,0 2.9,0.1 4.4,0.4 1.5,0.3 2.8,0.8 4,1.7 1.2,0.8 2.2,2 2.9,3.4 0.7,1.4 1.1,3.3 1.1,5.6 v 9.8 h 19.4 v 14 h -19.4 v 29.5 c 0,6.4 2.6,9.6 7.9,9.6 1.3,0 2.5,-0.2 3.7,-0.6 1.2,-0.4 2.2,-0.9 3.1,-1.4 0.9,-0.5 1.7,-1 2.4,-1.6 0.7,-0.6 1.2,-1 1.5,-1.2 1.4,2 2.4,3.8 3.2,5.3 0.7,1.5 1.1,2.9 1.1,4.2 0,1.2 -0.5,2.4 -1.5,3.6 -1,1.2 -2.3,2.2 -4.1,3.2 -1.8,1 -3.9,1.8 -6.4,2.4 -2.5,0.6 -5.2,0.9 -8.2,0.9 -5.7,0 -10.2,-1.1 -13.3,-3.3 -3.1,-2.4 -5.4,-5.3 -6.7,-8.9 z m 84.3,-1.8 c 2.3,0 4.3,-0.3 6.1,-0.8 1.8,-0.5 3.3,-1.1 4.7,-1.9 1.4,-0.7 2.6,-1.5 3.6,-2.4 1,-0.9 1.9,-1.7 2.8,-2.4 1.1,1.4 2.3,3.2 3.5,5.3 1.2,2.2 1.8,3.9 1.8,5.3 0,2 -1.2,3.9 -3.5,5.5 -1.9,1.5 -4.7,2.7 -8.2,3.8 -3.5,1.1 -7.7,1.6 -12.5,1.6 -4.3,0 -8.6,-0.6 -12.8,-1.7 -4.2,-1.1 -7.9,-3 -11.2,-5.8 -3.3,-2.8 -5.9,-6.5 -7.9,-11.1 -2,-4.7 -3,-10.5 -3,-17.6 0,-5.8 0.9,-10.8 2.7,-15 1.8,-4.2 4.2,-7.7 7.2,-10.4 3,-2.8 6.4,-4.8 10.2,-6.1 3.8,-1.3 7.6,-1.9 11.6,-1.9 5.2,0 9.5,0.8 13.1,2.4 3.6,1.6 6.5,3.8 8.8,6.5 2.3,2.7 3.9,5.8 4.9,9.3 1,3.5 1.5,7.2 1.5,11.1 v 1.9 c 0,0.7 0,1.5 -0.1,2.3 0,0.8 -0.1,1.6 -0.1,2.4 0,0.8 -0.1,1.4 -0.2,1.9 h -40.8 c 0.4,5.1 1.9,9.3 4.7,12.6 2.7,3.5 7.1,5.2 13.1,5.2 z m 6.3,-28 c 0,-4.4 -0.9,-8 -2.6,-10.8 -1.7,-2.8 -4.8,-4.1 -9.2,-4.1 -3.8,0 -6.8,1.3 -9.1,3.9 -2.3,2.6 -3.4,6.3 -3.4,11 z m 49.7,-19.2 c 0.6,-0.8 1.3,-1.7 2.2,-2.7 0.9,-1 2,-1.9 3.4,-2.7 1.3,-0.8 2.8,-1.5 4.4,-2.1 1.6,-0.5 3.3,-0.8 5.2,-0.8 1.1,0 2.3,0.1 3.5,0.3 1.2,0.2 2.4,0.5 3.5,1 1.1,0.5 1.9,1.2 2.6,2.1 0.6,0.9 1,1.9 1,3.2 0,2 -0.5,4.3 -1.5,6.9 -1,2.6 -2,4.8 -3,6.7 -1.6,-1.3 -3.1,-2.3 -4.7,-3 -1.6,-0.7 -3.4,-1 -5.5,-1 -2.9,0 -5.3,0.8 -7.2,2.5 -1.9,1.7 -2.9,3.6 -2.9,6 v 44.7 h -18.8 v -67.4 c 0.5,-0.1 1,-0.2 1.7,-0.3 0.6,-0.1 1.2,-0.2 1.9,-0.2 0.7,0 1.6,-0.1 2.6,-0.1 2.9,0 5.5,0.6 7.7,1.7 2,1.1 3.3,2.8 3.9,5.2 z m 53.4,0 c 0.6,-0.8 1.3,-1.7 2.2,-2.7 0.9,-1 2,-1.9 3.4,-2.7 1.3,-0.8 2.8,-1.5 4.4,-2.1 1.6,-0.5 3.3,-0.8 5.2,-0.8 1.1,0 2.3,0.1 3.5,0.3 1.2,0.2 2.4,0.5 3.5,1 1.1,0.5 1.9,1.2 2.6,2.1 0.6,0.9 1,1.9 1,3.2 0,2 -0.5,4.3 -1.5,6.9 -1,2.6 -2,4.8 -3,6.7 -1.6,-1.3 -3.1,-2.3 -4.7,-3 -1.6,-0.7 -3.4,-1 -5.5,-1 -2.9,0 -5.3,0.8 -7.2,2.5 -1.9,1.7 -2.9,3.6 -2.9,6 v 44.7 h -18.8 v -67.4 c 0.5,-0.1 1,-0.2 1.7,-0.3 0.6,-0.1 1.2,-0.2 1.9,-0.2 0.7,0 1.6,-0.1 2.6,-0.1 2.9,0 5.5,0.6 7.7,1.7 2,1.1 3.4,2.8 3.9,5.2 z m 89.7,42.9 c 0,7.3 1.1,12.6 3.2,15.9 -1.7,0.6 -3.2,1.1 -4.6,1.4 -1.4,0.3 -2.9,0.4 -4.5,0.4 -3.3,0 -5.8,-0.6 -7.5,-1.9 -1.7,-1.3 -2.8,-3.1 -3.2,-5.5 -2,2.1 -4.7,3.9 -8,5.4 -3.3,1.5 -7.4,2.2 -12.2,2.2 -2.5,0 -5,-0.3 -7.5,-1 -2.5,-0.7 -4.7,-1.8 -6.8,-3.4 -2,-1.6 -3.7,-3.7 -5,-6.3 -1.3,-2.6 -1.9,-5.8 -1.9,-9.6 0,-4.7 1.1,-8.5 3.4,-11.4 2.3,-2.9 5.1,-5.3 8.5,-7 3.4,-1.7 7.1,-2.9 11.1,-3.5 4,-0.6 7.6,-1.1 10.9,-1.2 1.1,-0.1 2.2,-0.1 3.2,-0.1 h 3 v -2.5 c 0,-3.5 -0.9,-6.1 -2.8,-7.5 -1.9,-1.5 -5,-2.2 -9.2,-2.2 -4,0 -7.5,0.6 -10.6,1.9 -3.1,1.3 -6.1,2.8 -9.1,4.4 -1.3,-1.6 -2.3,-3.3 -3.1,-5.2 -0.8,-1.9 -1.2,-3.3 -1.2,-4.2 0,-1.3 0.7,-2.5 2.1,-3.7 1.4,-1.2 3.4,-2.3 5.9,-3.2 2.5,-1 5.3,-1.7 8.6,-2.3 3.2,-0.6 6.6,-0.9 10.2,-0.9 5,0 9.2,0.5 12.6,1.5 3.5,1 6.3,2.6 8.4,4.7 2.2,2.1 3.7,4.8 4.6,7.9 0.9,3.2 1.4,6.9 1.4,11.1 z m -17.7,-16 h -1.9 c -0.6,0 -1.3,0 -1.9,0.1 -2.3,0.2 -4.6,0.5 -6.8,0.8 -2.3,0.4 -4.3,1 -6,1.9 -1.8,0.9 -3.2,2.1 -4.3,3.6 -1.1,1.5 -1.7,3.4 -1.7,5.7 0,2.6 0.7,4.8 2.2,6.6 1.5,1.8 4,2.7 7.5,2.7 1.7,0 3.4,-0.2 5,-0.7 1.6,-0.5 2.9,-1.1 4.1,-1.8 1.2,-0.7 2.1,-1.5 2.8,-2.4 0.7,-0.9 1,-1.7 1,-2.4 z"
           class="st2"
           inkscape:connector-curvature="0"
           style="fill:#ffffff" />
      </g>
    </g>
  </g>
</svg>
