<?xml version="1.0" encoding="UTF-8" standalone="no"?>
<!-- Created with Inkscape (http://www.inkscape.org/) -->

<svg
   xmlns:dc="http://purl.org/dc/elements/1.1/"
   xmlns:cc="http://creativecommons.org/ns#"
   xmlns:rdf="http://www.w3.org/1999/02/22-rdf-syntax-ns#"
   xmlns:svg="http://www.w3.org/2000/svg"
   xmlns="http://www.w3.org/2000/svg"
   xmlns:sodipodi="http://sodipodi.sourceforge.net/DTD/sodipodi-0.dtd"
   xmlns:inkscape="http://www.inkscape.org/namespaces/inkscape"
   width="37.103695mm"
   height="6.8010907mm"
   viewBox="0 0 37.103695 6.8010907"
   version="1.1"
   id="svg5193"
   inkscape:version="0.92.4 (5da689c313, 2019-01-14)"
   sodipodi:docname="Legal-Practice-Management-Software-28.svg">
  <defs
     id="defs5187" />
  <sodipodi:namedview
     id="base"
     pagecolor="#ffffff"
     bordercolor="#666666"
     borderopacity="1.0"
     inkscape:pageopacity="0.0"
     inkscape:pageshadow="2"
     inkscape:zoom="0.35"
     inkscape:cx="234.40291"
     inkscape:cy="-367.14752"
     inkscape:document-units="mm"
     inkscape:current-layer="layer1"
     showgrid="false"
     fit-margin-top="0"
     fit-margin-left="0"
     fit-margin-right="0"
     fit-margin-bottom="0"
     inkscape:window-width="1366"
     inkscape:window-height="705"
     inkscape:window-x="-8"
     inkscape:window-y="-8"
     inkscape:window-maximized="1" />
  <metadata
     id="metadata5190">
    <rdf:RDF>
      <cc:Work
         rdf:about="">
        <dc:format>image/svg+xml</dc:format>
        <dc:type
           rdf:resource="http://purl.org/dc/dcmitype/StillImage" />
        <dc:title></dc:title>
      </cc:Work>
    </rdf:RDF>
  </metadata>
  <g
     inkscape:label="Layer 1"
     inkscape:groupmode="layer"
     id="layer1"
     transform="translate(88.855414,-44.891127)">
    <g
       id="g3211"
       transform="matrix(0.23373373,0,0,0.23373373,-110.12985,-422.35847)">
      <path
         id="path3136-0"
         d="m 130.85961,2010.0415 -10.71563,-10.7156 c -0.37041,-0.344 -0.92604,-0.344 -1.27,0 l -2.11666,2.1166 8.59896,8.599 c 0.34395,0.344 0.34395,0.926 0,1.27 0,0 0,0 0,0 l -8.86355,8.8635 2.11667,2.1167 c 0.37042,0.344 0.92604,0.344 1.27,0 l 10.95375,-10.9537 c 0.37042,-0.3705 0.37042,-0.9261 0.0265,-1.2965"
         class="st0"
         inkscape:connector-curvature="0"
         style="fill:#ffffff;stroke-width:0.26458332" />
      <path
         id="path3138"
         d="m 112.60336,2000.1196 -0.76729,-0.7673 c -0.37042,-0.3439 -0.92604,-0.3439 -1.27,0 l -2.11667,2.1167 1.40229,1.4023 2.75167,2.7517 2.75167,-2.7517 z"
         class="st1"
         inkscape:connector-curvature="0"
         style="fill:#ffffff;stroke-width:0.26458332" />
      <path
         id="path3140"
         d="m 112.36523,2016.0475 -2.75166,2.7517 -1.40229,1.4023 2.11666,2.1167 c 0.37042,0.3439 0.92604,0.3439 1.27,0 l 0.76729,-0.7673 2.75167,-2.7517 z"
         class="st1"
         inkscape:connector-curvature="0"
         style="fill:#ffffff;stroke-width:0.26458332" />
      <path
         id="path3142-9"
         d="m 117.07482,2010.0415 c 0.34396,0.3704 0.34396,0.926 0,1.27 l -4.70959,4.7096 2.75167,2.7517 7.46125,-7.4613 c 0.34396,-0.344 0.34396,-0.926 0,-1.27 0,0 0,0 0,0 l -7.19667,-7.1967 -2.77812,2.7517 z"
         class="st2"
         inkscape:connector-curvature="0"
         style="fill:#ffffff;stroke-width:0.26458332" />
      <path
         id="path3144"
         d="m 99.585857,2010.3061 7.461253,-7.4613 -2.75167,-2.7516 -0.79375,-0.7673 c -0.37041,-0.344 -0.92604,-0.344 -1.27,0 l -10.953753,10.9802 c -0.34396,0.3439 -0.34396,0.926 0,1.27 0,0 0,0 0,0 l 10.715633,10.7156 c 0.37041,0.344 0.92604,0.344 1.27,0 l 0.79375,-0.7673 2.75166,-2.7516 -7.196663,-7.1967 c -0.37042,-0.344 -0.37042,-0.8996 -0.0265,-1.27 0,0 0,0 0,0"
         class="st3"
         inkscape:connector-curvature="0"
         style="fill:#ffffff;stroke-width:0.26458332" />
      <path
         id="path3146"
         d="m 107.89378,2010.3061 3.28083,-3.2808 -2.75167,-2.7517 -1.40229,-1.4023 -7.408333,7.4612 c -0.34396,0.344 -0.34396,0.9261 0,1.27 0,0 0,0 0,0 l 7.170213,7.1703 1.40229,-1.4023 2.75166,-2.7517 -3.0427,-3.0427 c -0.34396,-0.3175 -0.34396,-0.8996 0,-1.27"
         class="st1"
         inkscape:connector-curvature="0"
         style="fill:#ffffff;stroke-width:0.26458332" />
      <path
         id="path3148-3"
         d="m 107.89378,2011.5761 3.0427,3.0427 3.28084,-3.2808 c 0.34396,-0.344 0.34396,-0.9261 0,-1.27 0,0 0,0 0,0 l -3.04271,-3.0427 -3.28083,3.2808 c -0.3175,0.3704 -0.3175,0.926 0,1.27"
         class="st4"
         inkscape:connector-curvature="0"
         style="fill:#ffffff;stroke-width:0.26458332" />
      <path
         id="path3150"
         d="m 139.45857,2007.7925 c 0.0265,-1.217 0.26458,-2.4077 0.71437,-3.5454 0.42334,-1.0318 1.05834,-1.9843 1.85209,-2.7516 0.87312,-0.7938 1.905,-1.4023 3.01625,-1.7727 1.34937,-0.4498 2.77812,-0.6615 4.18041,-0.635 1.5875,-0.053 3.175,0.1852 4.65667,0.7143 1.05833,0.3969 2.06375,0.979 2.91042,1.7463 0.66145,0.5821 1.16416,1.2964 1.50812,2.0902 0.26458,0.5821 0.42333,1.1906 0.50271,1.8256 0.0265,0.2381 -0.0529,0.4763 -0.23813,0.635 -0.1852,0.1588 -0.39687,0.2381 -0.635,0.2381 h -2.61937 c -0.21167,0 -0.39688,-0.053 -0.55563,-0.1852 -0.13229,-0.1058 -0.23812,-0.2381 -0.29104,-0.3704 -0.0529,-0.079 -0.15875,-0.2646 -0.34396,-0.5556 -0.23812,-0.344 -0.52916,-0.6615 -0.87312,-0.8996 -0.47625,-0.344 -1.00542,-0.635 -1.56104,-0.8467 -0.76729,-0.2645 -1.61396,-0.3968 -2.43417,-0.3704 -1.40229,-0.079 -2.80458,0.3969 -3.88937,1.2965 -0.97896,0.8996 -1.53459,2.1696 -1.56105,3.5189 -0.0529,0.8202 -0.0529,1.6934 -0.0529,2.6459 0,0.926 0,1.8256 0.0529,2.6458 0.0529,1.7992 0.58209,3.0956 1.56105,3.8894 1.11125,0.8466 2.48708,1.27 3.86291,1.2171 0.74084,0 1.48167,-0.079 2.19604,-0.2646 0.635,-0.1588 1.21709,-0.4498 1.7198,-0.8467 0.5027,-0.3969 0.89958,-0.926 1.1377,-1.5346 0.29105,-0.7408 0.42334,-1.5346 0.39688,-2.3283 v -0.2646 h -3.94229 c -0.23813,0 -0.44979,-0.079 -0.60854,-0.2646 -0.15875,-0.1587 -0.26459,-0.3704 -0.26459,-0.6085 v -2.3019 c 0,-0.4762 0.39688,-0.8731 0.87313,-0.8731 h 7.46125 c 0.47625,0 0.87312,0.3969 0.87312,0.8731 v 3.5454 c 0.0265,1.2171 -0.18521,2.4342 -0.60854,3.5719 -0.39687,1.0583 -1.03187,2.0108 -1.85208,2.8046 -0.87313,0.8202 -1.93146,1.4552 -3.06917,1.8521 -2.77812,0.8731 -5.76792,0.8731 -8.5725,0 -1.11125,-0.3704 -2.14312,-0.979 -2.98979,-1.7727 -0.79375,-0.7938 -1.42875,-1.7463 -1.82563,-2.8046 -0.42333,-1.1377 -0.66145,-2.3548 -0.68791,-3.5719 0,-0.3969 -0.0265,-0.8731 -0.0529,-1.3494 0,-0.5027 0,-1.0054 0,-1.5346 0,-0.5291 0,-1.0318 0,-1.5081 0,-0.5027 0.0265,-0.926 0.0529,-1.3494"
         class="st5"
         inkscape:connector-curvature="0"
         style="fill:#ffffff;stroke-width:0.26458332" />
      <path
         id="path3152"
         d="m 169.03898,2008.798 c -0.55562,-0.026 -1.08479,0.079 -1.61395,0.2645 -0.42334,0.1588 -0.79375,0.3969 -1.11125,0.7144 -0.29105,0.2646 -0.52917,0.6086 -0.68792,0.979 -0.15875,0.3175 -0.26458,0.6614 -0.29104,1.0054 h 7.3025 c -0.0529,-0.344 -0.13229,-0.6879 -0.23813,-1.0054 -0.13229,-0.3704 -0.3175,-0.6879 -0.58208,-0.979 -0.29104,-0.3175 -0.66146,-0.5556 -1.05833,-0.7144 -0.55563,-0.2116 -1.13771,-0.291 -1.7198,-0.2645 m -7.91104,4.8418 c 0,-1.1641 0.18521,-2.3018 0.55563,-3.4131 0.34396,-1.0319 0.87312,-1.9844 1.5875,-2.8046 0.68791,-0.7937 1.56104,-1.4287 2.51354,-1.8521 1.03187,-0.4497 2.14312,-0.6879 3.25437,-0.6879 1.11125,-0.026 2.2225,0.2117 3.25438,0.6615 0.9525,0.4233 1.82562,1.0319 2.54,1.7992 0.68792,0.7672 1.24354,1.6404 1.61396,2.6193 0.37041,1.0054 0.58208,2.0638 0.55562,3.1486 v 1.4552 c 0,0.4762 -0.39687,0.8731 -0.87312,0.8731 h -10.795 c 0,0.4498 0.10583,0.8996 0.29104,1.2965 0.21167,0.3704 0.47625,0.6879 0.82021,0.926 0.37041,0.2646 0.76729,0.4498 1.19062,0.5821 0.44979,0.1323 0.92604,0.1852 1.40229,0.1852 0.55563,0.026 1.13771,-0.053 1.69334,-0.2117 0.37041,-0.1058 0.74083,-0.291 1.05833,-0.5291 0.18521,-0.1323 0.37042,-0.2646 0.58208,-0.3705 0.18521,-0.079 0.39688,-0.1058 0.60855,-0.1058 h 2.59291 c 0.23813,0 0.47625,0.1058 0.635,0.2646 0.18521,0.1587 0.26459,0.3704 0.23813,0.6085 -0.0794,0.4234 -0.23813,0.8202 -0.50271,1.1642 -0.37042,0.5556 -0.84667,1.0319 -1.40229,1.4023 -0.71438,0.5027 -1.50813,0.8996 -2.32834,1.1642 -1.03187,0.3439 -2.11666,0.5027 -3.175,0.4762 -1.11125,0 -2.2225,-0.2117 -3.25437,-0.635 -0.9525,-0.3969 -1.82563,-1.0054 -2.51354,-1.7727 -0.71438,-0.8202 -1.24354,-1.7462 -1.5875,-2.7781 -0.39688,-1.0848 -0.58209,-2.2754 -0.55563,-3.4661"
         class="st5"
         inkscape:connector-curvature="0"
         style="fill:#ffffff;stroke-width:0.26458332" />
      <path
         id="path3154-3"
         d="m 184.75523,2015.9682 c -0.0265,0.5821 0.15875,1.1641 0.52917,1.5875 0.34396,0.3968 1.00541,0.6085 1.98437,0.6085 h 1.95792 c 0.47625,0 0.87312,0.3969 0.87312,0.8731 v 2.1432 c 0,0.4762 -0.39687,0.8731 -0.87312,0.8731 h -2.40771 c -2.03729,0 -3.57187,-0.5027 -4.65666,-1.4817 -1.08479,-0.9789 -1.61396,-2.4871 -1.64042,-4.4979 v -6.9585 h -2.14312 c -0.23813,0 -0.4498,-0.079 -0.60855,-0.2646 -0.15875,-0.1588 -0.26458,-0.3704 -0.26458,-0.6086 v -2.1431 c 0,-0.2381 0.0794,-0.4498 0.26458,-0.6085 0.15875,-0.1588 0.37042,-0.2646 0.60855,-0.2646 h 2.14312 v -5.2652 c 0,-0.4763 0.39688,-0.8731 0.87313,-0.8731 h 2.46062 c 0.47625,0 0.87312,0.3968 0.87312,0.8731 v 5.2652 h 4.18042 c 0.47625,0.026 0.82021,0.3969 0.84667,0.8731 v 2.1431 c 0,0.4763 -0.39688,0.8732 -0.87313,0.8732 h -4.18042 z"
         class="st5"
         inkscape:connector-curvature="0"
         style="fill:#ffffff;stroke-width:0.26458332" />
      <path
         id="path3156"
         d="m 206.00127,2013.6134 -3.57187,-9.2075 -3.54542,9.2075 z m -1.79916,-14.2081 c 0.29104,-0.027 0.55562,0.079 0.76729,0.2645 0.21166,0.2382 0.37041,0.5292 0.47625,0.8202 l 7.91104,20.4523 c 0.0265,0.079 0.0265,0.1588 0.0265,0.2117 0,0.4763 -0.39688,0.8731 -0.87313,0.8731 h -2.32833 c -0.3175,0.026 -0.66146,-0.053 -0.89958,-0.2646 -0.15875,-0.1587 -0.26459,-0.3439 -0.34396,-0.5291 l -1.40229,-3.5984 h -10.21292 l -1.40229,3.5984 c -0.0794,0.2116 -0.21167,0.3704 -0.34396,0.5291 -0.26458,0.2117 -0.58208,0.3175 -0.89958,0.2646 h -2.32834 c -0.47625,0 -0.87312,-0.3968 -0.87312,-0.8731 0,-0.079 0,-0.1587 0.0265,-0.2117 l 7.91104,-20.4523 c 0.10583,-0.291 0.26458,-0.582 0.47625,-0.8202 0.21167,-0.1852 0.50271,-0.291 0.76729,-0.2645 z"
         class="st5"
         inkscape:connector-curvature="0"
         style="fill:#ffffff;stroke-width:0.26458332" />
      <path
         id="path3158"
         d="m 227.24731,2014.5394 c 0.0529,-0.6085 0.0529,-1.2171 0,-1.7991 -0.13229,-1.4023 -0.55562,-2.4078 -1.29646,-3.0163 -0.74083,-0.635 -1.69333,-0.9525 -2.67229,-0.926 -0.97896,-0.026 -1.93146,0.291 -2.67229,0.926 -0.76729,0.6879 -1.19062,1.6669 -1.24354,2.6723 -0.0529,0.3969 -0.0794,0.8202 -0.0529,1.2171 0,0.4233 0.0265,0.8202 0.0529,1.2171 0.0529,1.0054 0.50271,1.9579 1.24354,2.6458 0.74083,0.6615 1.69333,1.0054 2.67229,0.979 0.97896,0.026 1.93146,-0.3175 2.67229,-0.9261 0.74084,-0.6085 1.16417,-1.6139 1.29646,-2.9898 m -2.98979,7.8317 c -0.60854,0 -1.21708,-0.053 -1.79917,-0.1852 -0.47625,-0.1059 -0.9525,-0.2646 -1.40229,-0.4763 -0.34396,-0.1852 -0.68791,-0.3968 -1.00541,-0.6614 -0.23813,-0.1852 -0.47625,-0.3969 -0.68792,-0.635 v 6.8791 c 0,0.4763 -0.39688,0.8732 -0.87313,0.8732 h -2.43416 c -0.47625,0 -0.87313,-0.3969 -0.87313,-0.8732 v -21.1931 c 0,-0.4762 0.39688,-0.8731 0.87313,-0.8731 h 2.46062 c 0.47625,0 0.87313,0.3969 0.87313,0.8731 v 0.7408 c 0.21166,-0.2381 0.42333,-0.4497 0.68791,-0.635 0.3175,-0.2381 0.66146,-0.4497 1.03188,-0.635 0.44979,-0.2116 0.92604,-0.3704 1.40229,-0.4762 0.58208,-0.1323 1.19063,-0.1852 1.79917,-0.1852 1.00541,-0.026 2.01083,0.2117 2.93687,0.635 0.84667,0.3969 1.61396,0.9789 2.2225,1.6933 0.635,0.7144 1.11125,1.5346 1.45521,2.4342 0.34396,0.926 0.55563,1.8785 0.60854,2.8575 0.0265,0.3175 0.0265,0.6879 0.0265,1.1377 0,0.4498 0,0.8202 -0.0265,1.1377 -0.0529,0.979 -0.23812,1.9579 -0.60854,2.8575 -0.34396,0.8996 -0.82021,1.7198 -1.45521,2.4342 -0.60854,0.7143 -1.37583,1.27 -2.2225,1.6933 -0.97896,0.3969 -1.98437,0.6085 -2.98979,0.5821"
         class="st5"
         inkscape:connector-curvature="0"
         style="fill:#ffffff;stroke-width:0.26458332" />
      <path
         id="path3160"
         d="m 245.53002,2014.5394 c 0.0529,-0.6085 0.0529,-1.2171 0,-1.7991 -0.13229,-1.4023 -0.55562,-2.4078 -1.29646,-3.0163 -0.74083,-0.635 -1.69333,-0.9525 -2.67229,-0.926 -0.97896,-0.026 -1.93146,0.291 -2.67229,0.926 -0.76729,0.6879 -1.19063,1.6669 -1.24354,2.6723 -0.0529,0.3969 -0.0794,0.8202 -0.0529,1.2171 0,0.4233 0.0265,0.8202 0.0529,1.2171 0.0529,1.0054 0.50271,1.9579 1.24354,2.6458 0.74083,0.6615 1.69333,1.0054 2.67229,0.979 0.97896,0.026 1.93146,-0.3175 2.67229,-0.9261 0.74084,-0.6085 1.16417,-1.6139 1.29646,-2.9898 m -3.01625,7.8052 c -0.60854,0 -1.21708,-0.053 -1.79917,-0.1852 -0.47625,-0.1058 -0.9525,-0.2646 -1.40229,-0.4762 -0.37041,-0.1852 -0.71437,-0.3969 -1.00541,-0.635 -0.23813,-0.1852 -0.47625,-0.3969 -0.68792,-0.635 v 6.8791 c 0,0.2382 -0.10583,0.4498 -0.26458,0.6086 -0.15875,0.1587 -0.37042,0.2646 -0.60855,0.2646 h -2.46062 c -0.47625,0 -0.87313,-0.3969 -0.87313,-0.8732 v -21.1931 c 0,-0.4762 0.39688,-0.8731 0.87313,-0.8731 h 2.46062 c 0.47625,0 0.87313,0.3969 0.87313,0.8731 v 0.7408 c 0.21167,-0.2381 0.44979,-0.4497 0.68792,-0.635 0.3175,-0.2381 0.66145,-0.4497 1.00541,-0.635 0.44979,-0.2116 0.92604,-0.3704 1.40229,-0.4762 0.58209,-0.1323 1.19063,-0.1852 1.79917,-0.1852 1.00542,-0.026 2.01083,0.2117 2.93688,0.635 0.84666,0.3969 1.61395,0.9789 2.2225,1.6933 0.635,0.7144 1.11125,1.5346 1.4552,2.4342 0.34396,0.926 0.55563,1.8785 0.60855,2.8575 0.0265,0.3175 0.0265,0.6879 0.0265,1.1377 0,0.4498 0,0.8202 -0.0265,1.1377 -0.0529,0.979 -0.23813,1.9579 -0.60855,2.8575 -0.34395,0.8996 -0.8202,1.7198 -1.4552,2.4342 -0.635,0.7143 -1.37584,1.27 -2.2225,1.6933 -0.92605,0.4233 -1.93146,0.635 -2.93688,0.635"
         class="st5"
         inkscape:connector-curvature="0"
         style="fill:#ffffff;stroke-width:0.26458332" />
    </g>
  </g>
</svg>
