<?xml version="1.0" encoding="UTF-8" standalone="no"?>
<!-- Created with Inkscape (http://www.inkscape.org/) -->

<svg
   width="6.98665mm"
   height="6.9871998mm"
   viewBox="0 0 6.98665 6.9871998"
   version="1.1"
   id="svg1"
   inkscape:version="1.3.2 (091e20e, 2023-11-25, custom)"
   sodipodi:docname="linkedin.svg"
   xmlns:inkscape="http://www.inkscape.org/namespaces/inkscape"
   xmlns:sodipodi="http://sodipodi.sourceforge.net/DTD/sodipodi-0.dtd"
   xmlns="http://www.w3.org/2000/svg"
   xmlns:svg="http://www.w3.org/2000/svg">
  <sodipodi:namedview
     id="namedview1"
     pagecolor="#ffffff"
     bordercolor="#666666"
     borderopacity="1.0"
     inkscape:showpageshadow="2"
     inkscape:pageopacity="0.0"
     inkscape:pagecheckerboard="0"
     inkscape:deskcolor="#d1d1d1"
     inkscape:document-units="mm"
     inkscape:zoom="0.45344416"
     inkscape:cx="1.1026716"
     inkscape:cy="115.78052"
     inkscape:window-width="1366"
     inkscape:window-height="705"
     inkscape:window-x="-8"
     inkscape:window-y="-8"
     inkscape:window-maximized="1"
     inkscape:current-layer="layer1" />
  <defs
     id="defs1" />
  <g
     inkscape:label="Layer 1"
     inkscape:groupmode="layer"
     id="layer1"
     transform="translate(-104.51042,-118.0042)">
    <path
       id="path2"
       style="fill:#f9f9f9;fill-opacity:1;stroke:none;stroke-width:1.16871;stroke-linecap:round"
       d="m 108.00374,118.0042 a 3.4935,3.4935 0 0 0 -3.49332,3.4938 3.4935,3.4935 0 0 0 3.49332,3.4934 3.4935,3.4935 0 0 0 3.49333,-3.4934 3.4935,3.4935 0 0 0 -3.49333,-3.4938 z m -1.61023,1.4707 a 0.4869615,0.4869615 0 0 1 0.55655,0.4821 c 0,0.2689 -0.21852,0.4915 -0.48731,0.4915 -0.26887,0 -0.48679,-0.2226 -0.48679,-0.4915 a 0.4869615,0.4869615 0 0 1 0.41755,-0.4821 z m 2.63084,1.2754 c 0.85098,0 1.00718,0.5599 1.00718,1.2877 v 1.4878 h -5.2e-4 -0.83923 v -1.3183 c 0,-0.3141 -0.006,-0.7167 -0.43718,-0.7167 -0.43717,0 -0.50436,0.341 -0.50436,0.694 v 1.341 h -0.83974 v -2.7078 h 0.80667 v 0.3695 h 0.0114 c 0.11225,-0.2127 0.38671,-0.4372 0.79581,-0.4372 z m -2.98121,0.068 h 0.84078 v 2.7078 h -0.84078 z" />
  </g>
</svg>
