<?xml version="1.0" encoding="UTF-8" standalone="no"?>
<!-- Created with Inkscape (http://www.inkscape.org/) -->

<svg
   width="14.60393mm"
   height="14.60393mm"
   viewBox="0 0 14.60393 14.60393"
   version="1.1"
   id="svg1"
   inkscape:version="1.3.2 (091e20e, 2023-11-25, custom)"
   sodipodi:docname="manual-icon.svg"
   xmlns:inkscape="http://www.inkscape.org/namespaces/inkscape"
   xmlns:sodipodi="http://sodipodi.sourceforge.net/DTD/sodipodi-0.dtd"
   xmlns="http://www.w3.org/2000/svg"
   xmlns:svg="http://www.w3.org/2000/svg">
  <sodipodi:namedview
     id="namedview1"
     pagecolor="#ffffff"
     bordercolor="#666666"
     borderopacity="1.0"
     inkscape:showpageshadow="2"
     inkscape:pageopacity="0.0"
     inkscape:pagecheckerboard="0"
     inkscape:deskcolor="#d1d1d1"
     inkscape:document-units="mm"
     inkscape:zoom="0.45344416"
     inkscape:cx="-25.361447"
     inkscape:cy="206.19959"
     inkscape:window-width="1366"
     inkscape:window-height="705"
     inkscape:window-x="-8"
     inkscape:window-y="-8"
     inkscape:window-maximized="1"
     inkscape:current-layer="layer1" />
  <defs
     id="defs1" />
  <g
     inkscape:label="Layer 1"
     inkscape:groupmode="layer"
     id="layer1"
     transform="translate(-111.65417,-94.19167)">
    <g
       id="g93983"
       transform="matrix(0.84661625,0,0,0.84661625,90.004113,-236.79389)">
      <circle
         style="opacity:1;fill:#f9b141;fill-opacity:1;stroke:none;stroke-width:0.354589;stroke-linecap:round;stroke-dasharray:0.354589, 0.354589;stroke-dashoffset:0;stroke-opacity:1"
         id="path83629"
         cx="34.197334"
         cy="399.57599"
         r="8.6248817" />
      <g
         id="g88774"
         transform="matrix(0.45450833,0,0,0.45450833,-12.249756,203.6389)">
        <path
           style="fill:#ffffff;stroke:none;stroke-width:0.264583px;stroke-linecap:butt;stroke-linejoin:miter;stroke-opacity:1"
           d="m 105.43857,424.88776 c -8.804139,-4.97159 -13.911671,2.31786 -13.878613,7.53607 0.07914,12.49246 23.114403,10.40841 16.390203,-5.48749 l -1.11118,0.90334 c 5.33698,12.59009 -12.536595,14.29234 -12.56899,4.38444 -0.0254,-7.76841 7.8677,-8.21579 10.02529,-6.19114 z"
           id="path87098"
           sodipodi:nodetypes="csccscc" />
        <path
           style="fill:none;stroke:#ffffff;stroke-width:0.865;stroke-linecap:butt;stroke-linejoin:miter;stroke-dasharray:none;stroke-opacity:1"
           d="m 94.853124,431.79999 c 1.322916,0 1.322916,0 1.322916,0"
           id="path87100" />
        <path
           style="fill:none;stroke:#ffffff;stroke-width:0.865;stroke-linecap:butt;stroke-linejoin:miter;stroke-dasharray:none;stroke-opacity:1"
           d="m 100.93854,425.44999 v 1.7198"
           id="path87102" />
        <path
           style="fill:none;stroke:#ffffff;stroke-width:0.865;stroke-linecap:butt;stroke-linejoin:miter;stroke-dasharray:none;stroke-opacity:1"
           d="m 107.55312,431.6677 h -1.71979"
           id="path87104" />
        <path
           style="fill:none;stroke:#ffffff;stroke-width:0.865;stroke-linecap:butt;stroke-linejoin:miter;stroke-dasharray:none;stroke-opacity:1"
           d="m 101.07083,437.75312 v -1.5875"
           id="path87106" />
        <path
           d="m 97.004719,428.68863 c 0.326028,-0.65208 0.978114,-1.46718 2.119184,-1.14114 0.978117,0.32604 1.630177,1.30415 2.119187,2.60833 3.9125,-4.40151 7.17285,-7.49886 11.08535,-8.47701 0.48905,0 0.65207,0 0.32603,0.32603 -4.2385,2.93434 -8.314,7.33585 -11.57436,13.04153 -0.16301,0.16302 -0.32603,0.16302 -0.48905,0 -0.652065,-1.63018 -1.141138,-3.26035 -1.95618,-4.89053 -0.326038,-0.81508 -0.81509,-1.46716 -1.630181,-1.46716 z"
           fill-rule="evenodd"
           id="path88295"
           style="fill:#ffffff;fill-opacity:1;stroke-width:0.0131774" />
      </g>
    </g>
  </g>
</svg>
