<?xml version="1.0" encoding="UTF-8" standalone="no"?>
<!-- Created with Inkscape (http://www.inkscape.org/) -->

<svg
   width="5.2688298mm"
   height="8.4301004mm"
   viewBox="0 0 5.2688298 8.4301004"
   version="1.1"
   id="svg1"
   inkscape:version="1.3.2 (091e20e, 2023-11-25, custom)"
   sodipodi:docname="mobile.svg"
   xmlns:inkscape="http://www.inkscape.org/namespaces/inkscape"
   xmlns:sodipodi="http://sodipodi.sourceforge.net/DTD/sodipodi-0.dtd"
   xmlns="http://www.w3.org/2000/svg"
   xmlns:svg="http://www.w3.org/2000/svg">
  <sodipodi:namedview
     id="namedview1"
     pagecolor="#ffffff"
     bordercolor="#666666"
     borderopacity="1.0"
     inkscape:showpageshadow="2"
     inkscape:pageopacity="0.0"
     inkscape:pagecheckerboard="0"
     inkscape:deskcolor="#d1d1d1"
     inkscape:document-units="mm"
     inkscape:zoom="0.45344416"
     inkscape:cx="16.540074"
     inkscape:cy="259.12783"
     inkscape:window-width="1366"
     inkscape:window-height="705"
     inkscape:window-x="-8"
     inkscape:window-y="-8"
     inkscape:window-maximized="1"
     inkscape:current-layer="layer1" />
  <defs
     id="defs1" />
  <g
     inkscape:label="Layer 1"
     inkscape:groupmode="layer"
     id="layer1"
     transform="translate(-100.16177,-79.741539)">
    <path
       style="opacity:0.7;fill:#ffffff;fill-opacity:1;stroke-width:0.0164651"
       inkscape:connector-curvature="0"
       d="m 104.64029,79.741539 h -3.68818 c -0.43634,0 -0.79034,0.3539 -0.79034,0.7904 v 6.8494 c 0,0.4364 0.354,0.7903 0.79034,0.7903 h 3.68818 c 0.43631,0 0.79031,-0.3539 0.79031,-0.7903 v -6.8494 c 0,-0.4365 -0.354,-0.7904 -0.79031,-0.7904 z m -1.8441,7.9034 c -0.29144,0 -0.52689,-0.2356 -0.52689,-0.527 0,-0.2915 0.23545,-0.527 0.52689,-0.527 0.29143,0 0.52688,0.2355 0.52688,0.527 0,0.2914 -0.23545,0.527 -0.52688,0.527 z m 1.8441,-1.7783 c 0,0.1091 -0.089,0.1969 -0.19771,0.1969 h -3.29301 c -0.10869,0 -0.19749,-0.09 -0.19749,-0.1969 v -5.1372 c 0,-0.1092 0.089,-0.1969 0.19749,-0.1969 h 3.29301 c 0.1087,0 0.19771,0.09 0.19771,0.1969 z"
       id="path3720" />
  </g>
</svg>
