<?xml version="1.0" encoding="UTF-8" standalone="no"?>
<!-- Created with Inkscape (http://www.inkscape.org/) -->

<svg
   width="5.2503457mm"
   height="5.2503648mm"
   viewBox="0 0 5.2503457 5.2503648"
   version="1.1"
   id="svg1"
   inkscape:version="1.3.2 (091e20e, 2023-11-25, custom)"
   sodipodi:docname="phone.svg"
   xmlns:inkscape="http://www.inkscape.org/namespaces/inkscape"
   xmlns:sodipodi="http://sodipodi.sourceforge.net/DTD/sodipodi-0.dtd"
   xmlns="http://www.w3.org/2000/svg"
   xmlns:svg="http://www.w3.org/2000/svg">
  <sodipodi:namedview
     id="namedview1"
     pagecolor="#ffffff"
     bordercolor="#666666"
     borderopacity="1.0"
     inkscape:showpageshadow="2"
     inkscape:pageopacity="0.0"
     inkscape:pagecheckerboard="0"
     inkscape:deskcolor="#d1d1d1"
     inkscape:document-units="mm"
     inkscape:zoom="0.45344416"
     inkscape:cx="-237.07439"
     inkscape:cy="-54.030908"
     inkscape:window-width="1366"
     inkscape:window-height="705"
     inkscape:window-x="-8"
     inkscape:window-y="-8"
     inkscape:window-maximized="1"
     inkscape:current-layer="layer1" />
  <defs
     id="defs1" />
  <g
     inkscape:label="Layer 1"
     inkscape:groupmode="layer"
     id="layer1"
     transform="translate(-167.21667,-162.98324)">
    <path
       style="opacity:0.7;fill:#ffffff;fill-opacity:1;stroke-width:0.0102547"
       inkscape:connector-curvature="0"
       d="m 172.31721,166.6931 -1.14852,-0.4922 a 0.24611363,0.24611363 0 0 0 -0.28714,0.071 l -0.50862,0.6214 a 3.8010199,3.8010199 0 0 1 -1.81704,-1.817 l 0.62144,-0.5087 a 0.24549834,0.24549834 0 0 0 0.0708,-0.2872 l -0.49222,-1.1485 a 0.24775439,0.24775439 0 0 0 -0.282,-0.1425 l -1.0665,0.2461 a 0.24611363,0.24611363 0 0 0 -0.19074,0.2399 c 0,2.6304 2.13196,4.7582 4.7582,4.7582 a 0.24611363,0.24611363 0 0 0 0.23996,-0.1908 l 0.24611,-1.0664 a 0.2490875,0.2490875 0 0 0 -0.14367,-0.2831 z"
       id="path3670" />
  </g>
</svg>
