<?xml version="1.0" encoding="UTF-8" standalone="no"?>
<!-- Created with Inkscape (http://www.inkscape.org/) -->

<svg
   width="44.571701mm"
   height="45.823906mm"
   viewBox="0 0 44.571701 45.823906"
   version="1.1"
   id="svg1"
   inkscape:version="1.3.2 (091e20e, 2023-11-25, custom)"
   sodipodi:docname="practice-panther-logo.svg"
   xmlns:inkscape="http://www.inkscape.org/namespaces/inkscape"
   xmlns:sodipodi="http://sodipodi.sourceforge.net/DTD/sodipodi-0.dtd"
   xmlns="http://www.w3.org/2000/svg"
   xmlns:svg="http://www.w3.org/2000/svg">
  <sodipodi:namedview
     id="namedview1"
     pagecolor="#ffffff"
     bordercolor="#666666"
     borderopacity="1.0"
     inkscape:showpageshadow="2"
     inkscape:pageopacity="0.0"
     inkscape:pagecheckerboard="0"
     inkscape:deskcolor="#d1d1d1"
     inkscape:document-units="mm"
     inkscape:zoom="0.45344416"
     inkscape:cx="409.09116"
     inkscape:cy="497.30489"
     inkscape:window-width="1366"
     inkscape:window-height="705"
     inkscape:window-x="-8"
     inkscape:window-y="-8"
     inkscape:window-maximized="1"
     inkscape:current-layer="layer1" />
  <defs
     id="defs1" />
  <g
     inkscape:label="Layer 1"
     inkscape:groupmode="layer"
     id="layer1"
     transform="translate(3.704171,-16.668811)">
    <path
       id="path55919-9"
       style="fill:#275b85;fill-opacity:1;stroke:#275b85;stroke-width:0.216178px;stroke-linecap:butt;stroke-linejoin:miter;stroke-opacity:1"
       d="m 17.51995,16.7769 c -11.32924,0 -21.01192,7.4322 -21.01192,7.4322 -0.8668,14.3893 3.86887,23.7525 7.26225,27.6979 V 28.4316 c 13.23218,-6.9859 22.28237,-4.0877 29.55557,0 0,0 0.71626,7.7525 -3.37779,15.1998 -5.04209,9.1722 -11.31555,10.8091 -11.31555,10.8091 l -3.71557,-2.0267 0.16885,-6.4178 c 0,0 7.40115,0.2282 9.62668,-2.1955 4.13093,-4.501 3.45138,-9.433 0.3378,-11.9911 C 23.61022,30.6262 21.7889,29.9726 19.98358,29.6137 16.61497,28.9439 9.68135,29.7819 9.68135,29.7819 v 27.8667 c 2.38585,1.6369 4.7662,2.6646 9.2889,4.7289 0,0 11.81509,-3.5453 18.4089,-17.5647 3.59479,-7.6428 3.37778,-20.6044 3.37778,-20.6044 0,0 -10.86058,-7.3035 -22.9689,-7.431 -0.0893,-7e-4 -0.17893,0 -0.26811,0 z m -0.76043,17.0925 c 0.87227,0 1.91695,0.036 2.60766,0.129 4.38956,0.5904 2.68979,7.3836 0,7.5236 -1.4317,0.074 -4.1796,0.1203 -4.1796,0.1203 v -7.762 c 0,0 0.69966,-0.025 1.57194,0 z" />
  </g>
</svg>
