<?xml version="1.0" encoding="UTF-8" standalone="no"?>
<!-- Created with Inkscape (http://www.inkscape.org/) -->

<svg
   width="14.60393mm"
   height="14.60393mm"
   viewBox="0 0 14.60393 14.60393"
   version="1.1"
   id="svg1"
   inkscape:version="1.3.2 (091e20e, 2023-11-25, custom)"
   sodipodi:docname="trends-icon.svg"
   xmlns:inkscape="http://www.inkscape.org/namespaces/inkscape"
   xmlns:sodipodi="http://sodipodi.sourceforge.net/DTD/sodipodi-0.dtd"
   xmlns="http://www.w3.org/2000/svg"
   xmlns:svg="http://www.w3.org/2000/svg">
  <sodipodi:namedview
     id="namedview1"
     pagecolor="#ffffff"
     bordercolor="#666666"
     borderopacity="1.0"
     inkscape:showpageshadow="2"
     inkscape:pageopacity="0.0"
     inkscape:pagecheckerboard="0"
     inkscape:deskcolor="#d1d1d1"
     inkscape:document-units="mm"
     inkscape:zoom="0.45344416"
     inkscape:cx="-62.852281"
     inkscape:cy="173.11944"
     inkscape:window-width="1366"
     inkscape:window-height="705"
     inkscape:window-x="-8"
     inkscape:window-y="-8"
     inkscape:window-maximized="1"
     inkscape:current-layer="layer1" />
  <defs
     id="defs1" />
  <g
     inkscape:label="Layer 1"
     inkscape:groupmode="layer"
     id="layer1"
     transform="translate(-121.17917,-102.92291)">
    <g
       id="g5"
       transform="translate(86.081714,-348.35319)">
      <circle
         style="fill:#f9b141;fill-opacity:1;stroke:none;stroke-width:0.300201;stroke-linecap:round;stroke-dasharray:0.300201, 0.300201;stroke-dashoffset:0;stroke-opacity:1"
         id="circle103527"
         cx="42.399418"
         cy="458.57806"
         r="7.3019652" />
      <path
         d="m 44.956531,454.95409 v 1.33114 l -0.334127,-0.1927 v -2e-5 c -0.602778,0.81665 -1.367622,1.50008 -2.246723,2.00739 -0.879102,0.5074 -1.853429,0.82787 -2.862074,0.94127 0.952192,-0.18972 1.85496,-0.57417 2.651574,-1.12928 0.796614,-0.55511 1.469879,-1.26885 1.977612,-2.09644 l -0.339132,-0.1958 1.152738,-0.66559 z m 1.003772,6.77442 h -7.121771 v 0.47353 l 7.121771,2e-5 z m -3.121022,-0.17949 h 0.759651 v -2.96698 h -0.759651 z m -1.639378,0 h 0.759651 v -2.23865 h -0.759651 z m -1.639379,0 h 0.759651 v -1.67231 h -0.759651 z m 5.677787,0 v -4.3307 H 44.47866 v 4.3307 z"
         fill-rule="evenodd"
         id="path107940"
         style="fill:#ffffff;fill-opacity:1;stroke-width:0.00696098" />
    </g>
  </g>
</svg>
