<?xml version="1.0" encoding="UTF-8" standalone="no"?>
<!-- Created with Inkscape (http://www.inkscape.org/) -->

<svg
   width="39.6875mm"
   height="40.390919mm"
   viewBox="0 0 39.6875 40.390919"
   version="1.1"
   id="svg1"
   inkscape:version="1.3.2 (091e20e, 2023-11-25, custom)"
   sodipodi:docname="trends-large-icon.svg"
   xmlns:inkscape="http://www.inkscape.org/namespaces/inkscape"
   xmlns:sodipodi="http://sodipodi.sourceforge.net/DTD/sodipodi-0.dtd"
   xmlns="http://www.w3.org/2000/svg"
   xmlns:svg="http://www.w3.org/2000/svg">
  <sodipodi:namedview
     id="namedview1"
     pagecolor="#ffffff"
     bordercolor="#666666"
     borderopacity="1.0"
     inkscape:showpageshadow="2"
     inkscape:pageopacity="0.0"
     inkscape:pagecheckerboard="0"
     inkscape:deskcolor="#d1d1d1"
     inkscape:document-units="mm"
     inkscape:zoom="0.45344416"
     inkscape:cx="1.1026716"
     inkscape:cy="-82.70037"
     inkscape:window-width="1366"
     inkscape:window-height="705"
     inkscape:window-x="-8"
     inkscape:window-y="-8"
     inkscape:window-maximized="1"
     inkscape:current-layer="layer1" />
  <defs
     id="defs1" />
  <g
     inkscape:label="Layer 1"
     inkscape:groupmode="layer"
     id="layer1"
     transform="translate(-104.51042,-170.12707)">
    <path
       d="m 138.60415,170.12724 v 7.41804 l -1.86195,-1.07386 v -1.1e-4 c -3.35911,4.55094 -7.62135,8.35949 -12.52032,11.18658 -4.89897,2.82759 -10.3286,4.61347 -15.94947,5.24541 5.30627,-1.05725 10.33713,-3.19967 14.77642,-6.29313 4.43929,-3.09347 8.19119,-7.07092 11.02063,-11.68283 l -1.88988,-1.09114 6.42385,-3.70913 z m 5.59377,37.7518 h -39.6875 v 2.63884 l 39.6875,1.1e-4 z m -17.39254,-1.00025 h 4.23331 v -16.53408 h -4.23331 z m -9.13576,0 h 4.23331 v -12.47532 h -4.23331 z m -9.13576,0 h 4.23331 v -9.31928 h -4.23331 z m 31.64057,0 v -24.13368 h -4.2333 v 24.13368 z"
       fill-rule="evenodd"
       id="path107940"
       style="fill:#275b85;fill-opacity:1;stroke-width:0.0387914" />
  </g>
</svg>
